<svg version="1.2" baseProfile="tiny-ps" xmlns="http://www.w3.org/2000/svg" viewBox="0 0 980 958" width="980" height="958">
	<title>PinClipart</title>
	<style>
		tspan { white-space:pre }
		.shp0 { fill: #000000;stroke: none !important } 
		.shp1 { fill: #000000;stroke: #000000;stroke-width: 10 } 
	</style>
	<path id="Shape 4" class="shp0" d="M686.22 141.81L587.24 66.33C580.21 60.96 581.12 53.87 589.28 50.46L704.14 2.48C712.3 -0.93 717.99 3.41 716.86 12.19L700.98 135.64C699.85 144.41 693.25 147.17 686.22 141.81Z" />
	<path id="Shape 1" class="shp0" d="M16 921L964 921C972.85 921 980 928.15 980 937L980 942C980 950.85 972.85 958 964 958L16 958C7.15 958 0 950.85 0 942L0 937C0 928.15 7.15 921 16 921Z" />
	<path id="Shape 2" class="shp1" d="M295 711L456 711C464.85 711 472 718.15 472 727L472 878C472 886.85 464.85 894 456 894L295 894C286.15 894 279 886.85 279 878L279 727C279 718.15 286.15 711 295 711Z" />
	<path id="Shape 4" class="shp0" d="M752 862L913 862C921.85 862 929 869.15 929 878L929 878C929 886.85 921.85 894 913 894L752 894C743.15 894 736 886.85 736 878L736 878C736 869.15 743.15 862 752 862Z" />
	<path id="Shape 4 copy 2" class="shp0" d="M68 862L229 862C237.85 862 245 869.15 245 878L245 878C245 886.85 237.85 894 229 894L68 894C59.15 894 52 886.85 52 878L52 878C52 869.15 59.15 862 68 862Z" />
	<path id="Shape 4 copy 8" class="shp0" d="M68 573L229 573C237.85 573 245 580.15 245 589L245 589C245 597.85 237.85 605 229 605L68 605C59.15 605 52 597.85 52 589L52 589C52 580.15 59.15 573 68 573Z" />
	<path id="Shape 4 copy 4" class="shp0" d="M752 115L913 115C921.85 115 929 122.15 929 131L929 131C929 139.85 921.85 147 913 147L752 147C743.15 147 736 139.85 736 131L736 131C736 122.15 743.15 115 752 115Z" />
	<path id="Shape 2 copy 6" class="shp0" d="M913.5 115L913.5 115C922.07 115 929 121.93 929 130.5L929 878.5C929 887.07 922.07 894 913.5 894L913.5 894C904.93 894 898 887.07 898 878.5L898 130.5C898 121.93 904.93 115 913.5 115Z" />
	<path id="Shape 2 copy 5" class="shp0" d="M229.5 573L229.5 573C238.07 573 245 579.93 245 588.5L245 878.5C245 887.07 238.07 894 229.5 894L229.5 894C220.93 894 214 887.07 214 878.5L214 588.5C214 579.93 220.93 573 229.5 573Z" />
	<path id="Shape 2 copy 8" class="shp0" d="M67.5 573L67.5 573C76.07 573 83 579.93 83 588.5L83 878.5C83 887.07 76.07 894 67.5 894L67.5 894C58.93 894 52 887.07 52 878.5L52 588.5C52 579.93 58.93 573 67.5 573Z" />
	<path id="Shape 2 copy 7" class="shp0" d="M751.5 115L751.5 115C760.07 115 767 121.93 767 130.5L767 878.5C767 887.07 760.07 894 751.5 894L751.5 894C742.93 894 736 887.07 736 878.5L736 130.5C736 121.93 742.93 115 751.5 115Z" />
	<path id="Shape 4" class="shp0" d="M744.5 831.22L761.5 804.11L862 867.11L845 894.22L744.5 831.22Z" />
	<path id="Shape 4 copy" class="shp0" d="M750.07 720.44L767.93 693.89L923.93 798.89L906.07 825.44L750.07 720.44Z" />
	<path id="Shape 4 copy 11" class="shp0" d="M748.07 609.44L765.93 582.89L921.93 687.89L904.07 714.44L748.07 609.44Z" />
	<path id="Shape 4 copy 6" class="shp0" d="M742.07 493.44L759.93 466.89L915.93 571.89L898.07 598.44L742.07 493.44Z" />
	<path id="Shape 4 copy 7" class="shp0" d="M747.07 382.44L764.93 355.89L920.93 460.89L903.07 487.44L747.07 382.44Z" />
	<path id="Shape 4 copy 5" class="shp0" d="M746.07 267.44L763.93 240.89L919.93 345.89L902.07 372.44L746.07 267.44Z" />
	<path id="Shape 4 copy 3" class="shp0" d="M747.07 157.44L764.93 130.89L920.93 235.89L903.07 262.44L747.07 157.44Z" />
	<path id="Shape 3" class="shp0" d="M324.43 460.75L652.12 40.9C656.54 35.23 665.91 35.18 673.09 40.78L692.55 55.97C699.73 61.58 701.96 70.68 697.54 76.34L369.85 496.19C365.43 501.86 356.05 501.91 348.88 496.31L329.41 481.11C322.24 475.51 320.01 466.41 324.43 460.75Z" />
	<path id="Shape 3 copy" class="shp0" d="M40.83 311.32L376.91 445.49C384.7 448.6 386.07 463.45 379.98 478.71L379.98 478.71C373.89 493.97 362.67 503.8 354.88 500.69L18.8 366.52C11.01 363.41 9.63 348.56 15.73 333.29L15.73 333.29C21.82 318.03 33.04 308.21 40.83 311.32Z" />
	<path id="Shape 2 copy 3" class="shp0" d="M524 413L685 413C693.85 413 701 420.15 701 429L701 878C701 886.85 693.85 894 685 894L524 894C515.15 894 508 886.85 508 878L508 429C508 420.15 515.15 413 524 413Z" />
</svg>