<svg version="1.2" baseProfile="tiny-ps" xmlns="http://www.w3.org/2000/svg" viewBox="0 0 802 798" width="802" height="798">
	<title>search-analyze-495636</title>
	<style>
		tspan { white-space:pre }
		.shp0 { fill: #000000; stroke: none !important }
		.shp1 { fill: none !important;stroke: #000000;stroke-width: 18 }
		.shp2 { fill: #000000;stroke: #000000;stroke-width: 18 }
		.shp3 { fill: none !important;stroke: #000000;stroke-width: 72 }
	</style>
	<path id="Shape 2" class="shp0" d="M665.3 758.06L760.79 679.64C770.88 671.35 786.17 672.31 795 681.8L795 681.8C803.82 691.28 802.8 705.65 792.7 713.94L697.21 792.36C687.12 800.65 671.83 799.69 663 790.2L663 790.2C654.18 780.72 655.2 766.35 665.3 758.06Z" />
	<path id="Shape 2" class="shp0" d="M448.56 267.84L459.51 252.31L540.19 309.21L529.24 324.74L448.56 267.84Z" />
	<path id="Shape 2 copy 6" class="shp0" d="M441.48 366.01L452.52 350.55L544.27 416.05L533.23 431.51L441.48 366.01Z" />
	<path id="Shape 2 copy 3" class="shp0" d="M439.48 313.01L450.52 297.55L542.27 363.05L531.23 378.51L439.48 313.01Z" />
	<path id="Shape 2 copy 2" class="shp0" d="M611.74 527.5L749.51 671.53C758.62 681.05 758.07 695.91 748.29 704.77L706.41 742.69C696.63 751.55 681.36 751.02 672.26 741.5L534.48 597.47C525.38 587.95 525.93 573.09 535.71 564.23L577.58 526.31C587.37 517.45 602.63 517.98 611.74 527.5Z" />
	<path id="Shape 2" class="shp0" d="M616.1 520.5L793.39 681.64C800.09 687.73 803.62 693.95 801.28 695.54L739.43 737.7C737.09 739.29 731.68 734.37 727.31 726.68L611.87 523.38C607.51 515.7 609.4 514.41 616.1 520.5Z" />
	<path id="Shape 2" class="shp1" d="M461 259L521 259C529.85 259 537 266.15 537 275L537 451C537 459.85 529.85 467 521 467L461 467C452.15 467 445 459.85 445 451L445 275C445 266.15 452.15 259 461 259Z" />
	<path id="Shape 2 copy 4" class="shp2" d="M314 167L374 167C382.85 167 390 174.15 390 183L390 450C390 458.85 382.85 466 374 466L314 466C305.15 466 298 458.85 298 450L298 183C298 174.15 305.15 167 314 167Z" />
	<path id="Shape 2 copy 5" class="shp1" d="M167 325L227 325C235.85 325 243 332.15 243 341L243 449C243 457.85 235.85 465 227 465L167 465C158.15 465 151 457.85 151 449L151 341C151 332.15 158.15 325 167 325Z" />
	<path id="Shape 2 copy" class="shp0" d="M518.36 592.81L703.2 721.33C710.19 726.19 714.39 731.71 712.6 733.68L665.24 785.8C663.45 787.77 657.8 783.84 652.6 777.01L515.12 596.37C509.92 589.55 511.37 587.95 518.36 592.81Z" />
	<path id="Shape 1" class="shp3" d="M347 658C175.02 658 36 518.98 36 347C36 175.02 175.02 36 347 36C518.98 36 658 175.02 658 347C658 518.98 518.98 658 347 658Z" />
	<path id="Shape 2" class="shp0" d="M442.71 418.77L453.69 403.27L527.09 455.27L516.11 470.77L442.71 418.77Z" />
</svg>
